<mxfile host="app.diagrams.net" modified="2024-01-19T22:56:01.686Z" agent="Mozilla/5.0 (X11; Linux x86_64) AppleWebKit/537.36 (KHTML, like Gecko) Chrome/122.0.0.0 Safari/537.36" etag="PLgQJaeAj_WP3QVjJhmu" version="22.1.21" type="device">
  <diagram name="PÃ¡gina-1" id="6k7rhCxzKk-07utCUuns">
    <mxGraphModel dx="1802" dy="834" grid="1" gridSize="10" guides="1" tooltips="1" connect="1" arrows="1" fold="1" page="1" pageScale="1" pageWidth="1654" pageHeight="1169" math="0" shadow="0">
      <root>
        <mxCell id="0" />
        <mxCell id="1" parent="0" />
        <mxCell id="9JzTbqGydcHyfj5UqKp7-38" style="edgeStyle=orthogonalEdgeStyle;rounded=0;orthogonalLoop=1;jettySize=auto;html=1;entryX=0;entryY=0.5;entryDx=0;entryDy=0;" edge="1" parent="1" source="9JzTbqGydcHyfj5UqKp7-1" target="9JzTbqGydcHyfj5UqKp7-33">
          <mxGeometry relative="1" as="geometry">
            <Array as="points">
              <mxPoint x="930" y="650" />
              <mxPoint x="930" y="580" />
            </Array>
          </mxGeometry>
        </mxCell>
        <mxCell id="9JzTbqGydcHyfj5UqKp7-44" style="edgeStyle=orthogonalEdgeStyle;rounded=0;orthogonalLoop=1;jettySize=auto;html=1;entryX=0;entryY=0.5;entryDx=0;entryDy=0;" edge="1" parent="1" source="9JzTbqGydcHyfj5UqKp7-1" target="9JzTbqGydcHyfj5UqKp7-45">
          <mxGeometry relative="1" as="geometry">
            <mxPoint x="960" y="720" as="targetPoint" />
          </mxGeometry>
        </mxCell>
        <mxCell id="9JzTbqGydcHyfj5UqKp7-1" value="GIT&lt;br&gt;product ops" style="shape=cylinder3;whiteSpace=wrap;html=1;boundedLbl=1;backgroundOutline=1;size=15;" vertex="1" parent="1">
          <mxGeometry x="800" y="620" width="60" height="80" as="geometry" />
        </mxCell>
        <mxCell id="9JzTbqGydcHyfj5UqKp7-3" style="edgeStyle=orthogonalEdgeStyle;rounded=0;orthogonalLoop=1;jettySize=auto;html=1;" edge="1" parent="1" source="9JzTbqGydcHyfj5UqKp7-2" target="9JzTbqGydcHyfj5UqKp7-1">
          <mxGeometry relative="1" as="geometry">
            <Array as="points">
              <mxPoint x="530" y="660" />
            </Array>
          </mxGeometry>
        </mxCell>
        <mxCell id="9JzTbqGydcHyfj5UqKp7-2" value="template-ops" style="rounded=1;whiteSpace=wrap;html=1;" vertex="1" parent="1">
          <mxGeometry x="470" y="725" width="120" height="60" as="geometry" />
        </mxCell>
        <mxCell id="9JzTbqGydcHyfj5UqKp7-4" value="github api" style="text;html=1;align=center;verticalAlign=middle;resizable=0;points=[];autosize=1;strokeColor=none;fillColor=none;" vertex="1" parent="1">
          <mxGeometry x="440" y="678" width="80" height="30" as="geometry" />
        </mxCell>
        <mxCell id="9JzTbqGydcHyfj5UqKp7-10" style="edgeStyle=orthogonalEdgeStyle;rounded=0;orthogonalLoop=1;jettySize=auto;html=1;entryX=0.25;entryY=1;entryDx=0;entryDy=0;" edge="1" parent="1" source="9JzTbqGydcHyfj5UqKp7-5" target="9JzTbqGydcHyfj5UqKp7-2">
          <mxGeometry relative="1" as="geometry" />
        </mxCell>
        <mxCell id="9JzTbqGydcHyfj5UqKp7-5" value="Product Factory" style="swimlane;whiteSpace=wrap;html=1;" vertex="1" parent="1">
          <mxGeometry x="280" y="850" width="200" height="200" as="geometry" />
        </mxCell>
        <mxCell id="9JzTbqGydcHyfj5UqKp7-6" value="ADMIN&lt;br&gt;Templates" style="text;html=1;align=center;verticalAlign=middle;resizable=0;points=[];autosize=1;strokeColor=none;fillColor=none;" vertex="1" parent="9JzTbqGydcHyfj5UqKp7-5">
          <mxGeometry x="60" y="85" width="80" height="40" as="geometry" />
        </mxCell>
        <mxCell id="9JzTbqGydcHyfj5UqKp7-9" style="edgeStyle=orthogonalEdgeStyle;rounded=0;orthogonalLoop=1;jettySize=auto;html=1;entryX=0.75;entryY=1;entryDx=0;entryDy=0;" edge="1" parent="1" source="9JzTbqGydcHyfj5UqKp7-7" target="9JzTbqGydcHyfj5UqKp7-2">
          <mxGeometry relative="1" as="geometry" />
        </mxCell>
        <mxCell id="9JzTbqGydcHyfj5UqKp7-7" value="Product Factory" style="swimlane;whiteSpace=wrap;html=1;" vertex="1" parent="1">
          <mxGeometry x="580" y="850" width="200" height="200" as="geometry" />
        </mxCell>
        <mxCell id="9JzTbqGydcHyfj5UqKp7-8" value="&lt;br&gt;ADMIN&lt;br&gt;DMN Rules" style="text;html=1;align=center;verticalAlign=middle;resizable=0;points=[];autosize=1;strokeColor=none;fillColor=none;" vertex="1" parent="9JzTbqGydcHyfj5UqKp7-7">
          <mxGeometry x="60" y="70" width="80" height="60" as="geometry" />
        </mxCell>
        <mxCell id="9JzTbqGydcHyfj5UqKp7-23" style="edgeStyle=orthogonalEdgeStyle;rounded=0;orthogonalLoop=1;jettySize=auto;html=1;" edge="1" parent="1" source="9JzTbqGydcHyfj5UqKp7-11" target="9JzTbqGydcHyfj5UqKp7-21">
          <mxGeometry relative="1" as="geometry" />
        </mxCell>
        <mxCell id="9JzTbqGydcHyfj5UqKp7-11" value="Client" style="swimlane;whiteSpace=wrap;html=1;" vertex="1" parent="1">
          <mxGeometry x="80" y="210" width="200" height="200" as="geometry" />
        </mxCell>
        <mxCell id="9JzTbqGydcHyfj5UqKp7-28" value="FORM:&lt;br&gt;template X" style="rounded=0;whiteSpace=wrap;html=1;" vertex="1" parent="9JzTbqGydcHyfj5UqKp7-11">
          <mxGeometry x="40" y="70" width="120" height="60" as="geometry" />
        </mxCell>
        <mxCell id="9JzTbqGydcHyfj5UqKp7-16" style="edgeStyle=orthogonalEdgeStyle;rounded=0;orthogonalLoop=1;jettySize=auto;html=1;entryX=1;entryY=0.75;entryDx=0;entryDy=0;" edge="1" parent="1" source="9JzTbqGydcHyfj5UqKp7-12" target="9JzTbqGydcHyfj5UqKp7-11">
          <mxGeometry relative="1" as="geometry" />
        </mxCell>
        <mxCell id="9JzTbqGydcHyfj5UqKp7-12" value="template" style="rounded=1;whiteSpace=wrap;html=1;" vertex="1" parent="1">
          <mxGeometry x="480" y="390" width="120" height="60" as="geometry" />
        </mxCell>
        <mxCell id="9JzTbqGydcHyfj5UqKp7-18" style="edgeStyle=orthogonalEdgeStyle;rounded=0;orthogonalLoop=1;jettySize=auto;html=1;entryX=1;entryY=0.25;entryDx=0;entryDy=0;" edge="1" parent="1" source="9JzTbqGydcHyfj5UqKp7-13" target="9JzTbqGydcHyfj5UqKp7-11">
          <mxGeometry relative="1" as="geometry" />
        </mxCell>
        <mxCell id="9JzTbqGydcHyfj5UqKp7-13" value="condition-template&lt;br&gt;(for templateX)" style="rounded=1;whiteSpace=wrap;html=1;fillColor=#dae8fc;strokeColor=#6c8ebf;" vertex="1" parent="1">
          <mxGeometry x="480" y="170" width="120" height="60" as="geometry" />
        </mxCell>
        <mxCell id="9JzTbqGydcHyfj5UqKp7-15" style="edgeStyle=orthogonalEdgeStyle;rounded=0;orthogonalLoop=1;jettySize=auto;html=1;entryX=1;entryY=0.5;entryDx=0;entryDy=0;" edge="1" parent="1" source="9JzTbqGydcHyfj5UqKp7-14" target="9JzTbqGydcHyfj5UqKp7-12">
          <mxGeometry relative="1" as="geometry" />
        </mxCell>
        <mxCell id="9JzTbqGydcHyfj5UqKp7-14" value="mongo&lt;br&gt;Template&lt;br&gt;schema" style="shape=cylinder3;whiteSpace=wrap;html=1;boundedLbl=1;backgroundOutline=1;size=15;fillColor=#e1d5e7;strokeColor=#9673a6;" vertex="1" parent="1">
          <mxGeometry x="680" y="450" width="60" height="80" as="geometry" />
        </mxCell>
        <mxCell id="9JzTbqGydcHyfj5UqKp7-17" value="templateX -- JSON" style="text;html=1;align=center;verticalAlign=middle;resizable=0;points=[];autosize=1;strokeColor=none;fillColor=none;" vertex="1" parent="1">
          <mxGeometry x="330" y="430" width="120" height="30" as="geometry" />
        </mxCell>
        <mxCell id="9JzTbqGydcHyfj5UqKp7-19" value="conditions" style="text;html=1;align=center;verticalAlign=middle;resizable=0;points=[];autosize=1;strokeColor=none;fillColor=none;" vertex="1" parent="1">
          <mxGeometry x="340" y="170" width="80" height="30" as="geometry" />
        </mxCell>
        <mxCell id="9JzTbqGydcHyfj5UqKp7-20" value="contiene todos los DMN del templateX" style="shape=callout;whiteSpace=wrap;html=1;perimeter=calloutPerimeter;" vertex="1" parent="1">
          <mxGeometry x="540" y="80" width="120" height="80" as="geometry" />
        </mxCell>
        <mxCell id="9JzTbqGydcHyfj5UqKp7-21" value="Microservice:&lt;br&gt;templateX" style="rounded=1;whiteSpace=wrap;html=1;fillColor=#fff2cc;strokeColor=#d6b656;" vertex="1" parent="1">
          <mxGeometry x="480" y="280" width="120" height="60" as="geometry" />
        </mxCell>
        <mxCell id="9JzTbqGydcHyfj5UqKp7-24" value="data" style="text;html=1;align=center;verticalAlign=middle;resizable=0;points=[];autosize=1;strokeColor=none;fillColor=none;" vertex="1" parent="1">
          <mxGeometry x="355" y="288" width="50" height="30" as="geometry" />
        </mxCell>
        <mxCell id="9JzTbqGydcHyfj5UqKp7-25" value="TABLE:&lt;br&gt;templateX" style="shape=cylinder3;whiteSpace=wrap;html=1;boundedLbl=1;backgroundOutline=1;size=15;fillColor=#d5e8d4;strokeColor=#82b366;" vertex="1" parent="1">
          <mxGeometry x="680" y="320" width="60" height="80" as="geometry" />
        </mxCell>
        <mxCell id="9JzTbqGydcHyfj5UqKp7-26" style="edgeStyle=orthogonalEdgeStyle;rounded=0;orthogonalLoop=1;jettySize=auto;html=1;entryX=0;entryY=0.5;entryDx=0;entryDy=0;entryPerimeter=0;exitX=1;exitY=0.5;exitDx=0;exitDy=0;" edge="1" parent="1" source="9JzTbqGydcHyfj5UqKp7-21" target="9JzTbqGydcHyfj5UqKp7-25">
          <mxGeometry relative="1" as="geometry">
            <Array as="points">
              <mxPoint x="640" y="310" />
              <mxPoint x="640" y="360" />
            </Array>
          </mxGeometry>
        </mxCell>
        <mxCell id="9JzTbqGydcHyfj5UqKp7-27" value="save" style="text;html=1;align=center;verticalAlign=middle;resizable=0;points=[];autosize=1;strokeColor=none;fillColor=none;" vertex="1" parent="1">
          <mxGeometry x="617" y="360" width="50" height="30" as="geometry" />
        </mxCell>
        <mxCell id="9JzTbqGydcHyfj5UqKp7-29" value="Update&lt;br&gt;Template Scema&lt;br&gt;Data" style="shape=step;perimeter=stepPerimeter;whiteSpace=wrap;html=1;fixedSize=1;fillColor=#e1d5e7;strokeColor=#9673a6;" vertex="1" parent="1">
          <mxGeometry x="1300" y="678" width="140" height="80" as="geometry" />
        </mxCell>
        <mxCell id="9JzTbqGydcHyfj5UqKp7-30" value="ALTER&lt;br&gt;Table template" style="shape=step;perimeter=stepPerimeter;whiteSpace=wrap;html=1;fixedSize=1;fillColor=#d5e8d4;strokeColor=#82b366;" vertex="1" parent="1">
          <mxGeometry x="1420" y="678" width="120" height="80" as="geometry" />
        </mxCell>
        <mxCell id="9JzTbqGydcHyfj5UqKp7-31" value="checkout&lt;br&gt;template&lt;br&gt;base" style="shape=step;perimeter=stepPerimeter;whiteSpace=wrap;html=1;fixedSize=1;" vertex="1" parent="1">
          <mxGeometry x="1100" y="678" width="120" height="80" as="geometry" />
        </mxCell>
        <mxCell id="9JzTbqGydcHyfj5UqKp7-32" value="install&amp;nbsp;&lt;br&gt;deploy" style="shape=step;perimeter=stepPerimeter;whiteSpace=wrap;html=1;fixedSize=1;fillColor=#fff2cc;strokeColor=#d6b656;" vertex="1" parent="1">
          <mxGeometry x="1520" y="678" width="120" height="80" as="geometry" />
        </mxCell>
        <mxCell id="9JzTbqGydcHyfj5UqKp7-33" value="fetch DMN&lt;br&gt;modificados" style="shape=step;perimeter=stepPerimeter;whiteSpace=wrap;html=1;fixedSize=1;" vertex="1" parent="1">
          <mxGeometry x="1000" y="540" width="120" height="80" as="geometry" />
        </mxCell>
        <mxCell id="9JzTbqGydcHyfj5UqKp7-34" value="checkout&lt;br&gt;condiition-template&lt;br&gt;base" style="shape=step;perimeter=stepPerimeter;whiteSpace=wrap;html=1;fixedSize=1;" vertex="1" parent="1">
          <mxGeometry x="1100" y="540" width="150" height="80" as="geometry" />
        </mxCell>
        <mxCell id="9JzTbqGydcHyfj5UqKp7-35" value="union" style="shape=step;perimeter=stepPerimeter;whiteSpace=wrap;html=1;fixedSize=1;" vertex="1" parent="1">
          <mxGeometry x="1230" y="540" width="120" height="80" as="geometry" />
        </mxCell>
        <mxCell id="9JzTbqGydcHyfj5UqKp7-36" value="deploy" style="shape=step;perimeter=stepPerimeter;whiteSpace=wrap;html=1;fixedSize=1;fillColor=#dae8fc;strokeColor=#6c8ebf;" vertex="1" parent="1">
          <mxGeometry x="1330" y="540" width="120" height="80" as="geometry" />
        </mxCell>
        <mxCell id="9JzTbqGydcHyfj5UqKp7-39" value="CI-CD conditions" style="text;html=1;align=center;verticalAlign=middle;resizable=0;points=[];autosize=1;strokeColor=none;fillColor=none;" vertex="1" parent="1">
          <mxGeometry x="965" y="510" width="110" height="30" as="geometry" />
        </mxCell>
        <mxCell id="9JzTbqGydcHyfj5UqKp7-40" value="CI-CD template" style="text;html=1;align=center;verticalAlign=middle;resizable=0;points=[];autosize=1;strokeColor=none;fillColor=none;" vertex="1" parent="1">
          <mxGeometry x="965" y="648" width="110" height="30" as="geometry" />
        </mxCell>
        <mxCell id="9JzTbqGydcHyfj5UqKp7-42" style="edgeStyle=orthogonalEdgeStyle;rounded=0;orthogonalLoop=1;jettySize=auto;html=1;entryX=0.5;entryY=0;entryDx=0;entryDy=0;" edge="1" parent="1" source="9JzTbqGydcHyfj5UqKp7-41" target="9JzTbqGydcHyfj5UqKp7-34">
          <mxGeometry relative="1" as="geometry" />
        </mxCell>
        <mxCell id="9JzTbqGydcHyfj5UqKp7-41" value="condition-template&lt;br&gt;BASE" style="shape=cylinder3;whiteSpace=wrap;html=1;boundedLbl=1;backgroundOutline=1;size=15;" vertex="1" parent="1">
          <mxGeometry x="1170" y="390" width="60" height="80" as="geometry" />
        </mxCell>
        <mxCell id="9JzTbqGydcHyfj5UqKp7-47" style="edgeStyle=orthogonalEdgeStyle;rounded=0;orthogonalLoop=1;jettySize=auto;html=1;" edge="1" parent="1" source="9JzTbqGydcHyfj5UqKp7-43" target="9JzTbqGydcHyfj5UqKp7-31">
          <mxGeometry relative="1" as="geometry" />
        </mxCell>
        <mxCell id="9JzTbqGydcHyfj5UqKp7-43" value="template&lt;br&gt;BASE" style="shape=cylinder3;whiteSpace=wrap;html=1;boundedLbl=1;backgroundOutline=1;size=15;" vertex="1" parent="1">
          <mxGeometry x="1090" y="820" width="60" height="80" as="geometry" />
        </mxCell>
        <mxCell id="9JzTbqGydcHyfj5UqKp7-45" value="fetch JSON" style="shape=step;perimeter=stepPerimeter;whiteSpace=wrap;html=1;fixedSize=1;" vertex="1" parent="1">
          <mxGeometry x="1000" y="678" width="120" height="80" as="geometry" />
        </mxCell>
        <mxCell id="9JzTbqGydcHyfj5UqKp7-46" value="union" style="shape=step;perimeter=stepPerimeter;whiteSpace=wrap;html=1;fixedSize=1;" vertex="1" parent="1">
          <mxGeometry x="1200" y="678" width="120" height="80" as="geometry" />
        </mxCell>
        <mxCell id="9JzTbqGydcHyfj5UqKp7-51" value="maven&lt;br&gt;Artifactory" style="shape=cylinder3;whiteSpace=wrap;html=1;boundedLbl=1;backgroundOutline=1;size=15;" vertex="1" parent="1">
          <mxGeometry x="1520" y="820" width="60" height="80" as="geometry" />
        </mxCell>
        <mxCell id="9JzTbqGydcHyfj5UqKp7-52" style="edgeStyle=orthogonalEdgeStyle;rounded=0;orthogonalLoop=1;jettySize=auto;html=1;entryX=0.5;entryY=0;entryDx=0;entryDy=0;entryPerimeter=0;" edge="1" parent="1" source="9JzTbqGydcHyfj5UqKp7-32" target="9JzTbqGydcHyfj5UqKp7-51">
          <mxGeometry relative="1" as="geometry" />
        </mxCell>
      </root>
    </mxGraphModel>
  </diagram>
</mxfile>
